# xmcd
# 
# Track frame offsets:
#     150
#     24290
#     50889
#     75208
#     101995
#     126201
#     150422
#     179085
# 
# Disc length: 2715
# 
# Revision: 1
# Processed by: cddbd v1.5.2PL0 Copyright (c) Steve Scherf et al.
# Submitted via: fre:ac v1.0.17
# 
DISCID=600a9908
DTITLE=Madona  - Erotica
DYEAR=1992
DGENRE=Pop
TTITLE0=Erotica ( Titel 01 )
TTITLE1=Erotica ( Titel 02 )
TTITLE2=Erotica ( Titel 03 )
TTITLE3=Erotica ( Titel 04 )
TTITLE4=Erotica ( Titel 05 )
TTITLE5=Erotica ( Titel 06 )
TTITLE6=Erotica ( Titel 07 )
TTITLE7=Erotica ( titel 08 )
EXTD=
EXTT0=
EXTT1=
EXTT2=
EXTT3=
EXTT4=
EXTT5=
EXTT6=
EXTT7=
PLAYORDER=
